{
  "accessors": [
    {
      "bufferView": 2,
      "componentType": 5126,
      "count": 331,
      "max": [
        51.1519775390625,
        51.145992279052734,
        141.34295654296875
      ],
      "min": [
        -51.1519889831543,
        -51.145992279052734,
        5.274866104125977
      ],
      "type": "VEC3"
    },
    {
      "bufferView": 2,
      "byteOffset": 3972,
      "componentType": 5126,
      "count": 331,
      "max": [
        1.0,
        1.0,
        0.43385812640190125
      ],
      "min": [
        -1.0,
        -1.0,
        -0.028410619124770164
      ],
      "type": "VEC3"
    },
    {
      "bufferView": 3,
      "componentType": 5126,
      "count": 331,
      "max": [
        1.0,
        1.0,
        0.03443770483136177,
        1.0
      ],
      "min": [
        -1.0,
        -1.0,
        -0.03443766385316849,
        1.0
      ],
      "type": "VEC4"
    },
    {
      "bufferView": 1,
      "componentType": 5126,
      "count": 331,
      "max": [
        1.0002069473266602,
        1.0007171630859375
      ],
      "min": [
        -0.003070533275604248,
        0.0005000184755772352
      ],
      "type": "VEC2"
    },
    {
      "bufferView": 0,
      "componentType": 5125,
      "count": 1512,
      "type": "SCALAR"
    },
    {
      "bufferView": 2,
      "byteOffset": 7944,
      "componentType": 5126,
      "count": 2944,
      "max": [
        51.0907096862793,
        51.08473205566406,
        144.6162872314453
      ],
      "min": [
        -51.090721130371094,
        -51.08473205566406,
        -6.052167892456055
      ],
      "type": "VEC3"
    },
    {
      "bufferView": 2,
      "byteOffset": 43272,
      "componentType": 5126,
      "count": 2944,
      "max": [
        1.0,
        1.0,
        1.0
      ],
      "min": [
        -1.0,
        -1.0,
        -1.0
      ],
      "type": "VEC3"
    },
    {
      "bufferView": 1,
      "byteOffset": 2648,
      "componentType": 5126,
      "count": 2944,
      "max": [
        1.0,
        1.0167226791381836
      ],
      "min": [
        -0.09903264045715332,
        0.0
      ],
      "type": "VEC2"
    },
    {
      "bufferView": 0,
      "byteOffset": 6048,
      "componentType": 5125,
      "count": 8832,
      "type": "SCALAR"
    },
    {
      "bufferView": 2,
      "byteOffset": 78600,
      "componentType": 5126,
      "count": 331,
      "max": [
        51.1519775390625,
        51.145992279052734,
        141.34295654296875
      ],
      "min": [
        -51.1519889831543,
        -51.145992279052734,
        5.274866104125977
      ],
      "type": "VEC3"
    },
    {
      "bufferView": 2,
      "byteOffset": 82572,
      "componentType": 5126,
      "count": 331,
      "max": [
        1.0,
        1.0,
        0.43385812640190125
      ],
      "min": [
        -1.0,
        -1.0,
        -0.028410619124770164
      ],
      "type": "VEC3"
    },
    {
      "bufferView": 3,
      "byteOffset": 5296,
      "componentType": 5126,
      "count": 331,
      "max": [
        1.0,
        1.0,
        0.03443770483136177,
        1.0
      ],
      "min": [
        -1.0,
        -1.0,
        -0.03443766385316849,
        1.0
      ],
      "type": "VEC4"
    },
    {
      "bufferView": 1,
      "byteOffset": 26200,
      "componentType": 5126,
      "count": 331,
      "max": [
        1.0002069473266602,
        1.0007171630859375
      ],
      "min": [
        -0.003070533275604248,
        0.0005000184755772352
      ],
      "type": "VEC2"
    },
    {
      "bufferView": 0,
      "byteOffset": 41376,
      "componentType": 5125,
      "count": 1512,
      "type": "SCALAR"
    },
    {
      "bufferView": 2,
      "byteOffset": 86544,
      "componentType": 5126,
      "count": 2944,
      "max": [
        51.0907096862793,
        51.08473205566406,
        144.6162872314453
      ],
      "min": [
        -51.090721130371094,
        -51.08473205566406,
        -6.052167892456055
      ],
      "type": "VEC3"
    },
    {
      "bufferView": 2,
      "byteOffset": 121872,
      "componentType": 5126,
      "count": 2944,
      "max": [
        1.0,
        1.0,
        1.0
      ],
      "min": [
        -1.0,
        -1.0,
        -1.0
      ],
      "type": "VEC3"
    },
    {
      "bufferView": 1,
      "byteOffset": 28848,
      "componentType": 5126,
      "count": 2944,
      "max": [
        1.0,
        1.0167226791381836
      ],
      "min": [
        -0.09903264045715332,
        0.0
      ],
      "type": "VEC2"
    },
    {
      "bufferView": 0,
      "byteOffset": 47424,
      "componentType": 5125,
      "count": 8832,
      "type": "SCALAR"
    },
    {
      "bufferView": 2,
      "byteOffset": 157200,
      "componentType": 5126,
      "count": 296,
      "max": [
        51.1519775390625,
        51.145992279052734,
        141.34295654296875
      ],
      "min": [
        -51.1519889831543,
        -51.145992279052734,
        5.274866104125977
      ],
      "type": "VEC3"
    },
    {
      "bufferView": 2,
      "byteOffset": 160752,
      "componentType": 5126,
      "count": 296,
      "max": [
        1.0,
        1.0,
        0.43385812640190125
      ],
      "min": [
        -1.0,
        -1.0,
        -0.028410619124770164
      ],
      "type": "VEC3"
    },
    {
      "bufferView": 3,
      "byteOffset": 10592,
      "componentType": 5126,
      "count": 296,
      "max": [
        1.0,
        1.0,
        0.03443770855665207,
        1.0
      ],
      "min": [
        -1.0,
        -1.0,
        -0.03443766012787819,
        1.0
      ],
      "type": "VEC4"
    },
    {
      "bufferView": 1,
      "byteOffset": 52400,
      "componentType": 5126,
      "count": 296,
      "max": [
        0.9975523352622986,
        0.8824864625930786
      ],
      "min": [
        -0.000673389935400337,
        0.0005000184755772352
      ],
      "type": "VEC2"
    },
    {
      "bufferView": 0,
      "byteOffset": 82752,
      "componentType": 5125,
      "count": 1512,
      "type": "SCALAR"
    },
    {
      "bufferView": 2,
      "byteOffset": 164304,
      "componentType": 5126,
      "count": 2944,
      "max": [
        51.0907096862793,
        51.08473205566406,
        144.6162872314453
      ],
      "min": [
        -51.090721130371094,
        -51.08473205566406,
        -6.052167892456055
      ],
      "type": "VEC3"
    },
    {
      "bufferView": 2,
      "byteOffset": 199632,
      "componentType": 5126,
      "count": 2944,
      "max": [
        1.0,
        1.0,
        1.0
      ],
      "min": [
        -1.0,
        -1.0,
        -1.0
      ],
      "type": "VEC3"
    },
    {
      "bufferView": 1,
      "byteOffset": 54768,
      "componentType": 5126,
      "count": 2944,
      "max": [
        1.0,
        1.0167226791381836
      ],
      "min": [
        -0.09903264045715332,
        0.0
      ],
      "type": "VEC2"
    },
    {
      "bufferView": 0,
      "byteOffset": 88800,
      "componentType": 5125,
      "count": 8832,
      "type": "SCALAR"
    },
    {
      "bufferView": 2,
      "byteOffset": 234960,
      "componentType": 5126,
      "count": 296,
      "max": [
        51.151981353759766,
        52.14592742919922,
        141.34295654296875
      ],
      "min": [
        -51.1519889831543,
        -50.14605712890625,
        5.274864196777344
      ],
      "type": "VEC3"
    },
    {
      "bufferView": 2,
      "byteOffset": 238512,
      "componentType": 5126,
      "count": 296,
      "max": [
        1.0,
        1.0,
        0.4338582158088684
      ],
      "min": [
        -1.0,
        -1.0,
        -0.16012856364250183
      ],
      "type": "VEC3"
    },
    {
      "bufferView": 3,
      "byteOffset": 15328,
      "componentType": 5126,
      "count": 296,
      "max": [
        1.0,
        1.0,
        0.034437600523233414,
        1.0
      ],
      "min": [
        -1.0,
        -1.0,
        -0.03443756699562073,
        1.0
      ],
      "type": "VEC4"
    },
    {
      "bufferView": 1,
      "byteOffset": 78320,
      "componentType": 5126,
      "count": 296,
      "max": [
        0.9975523352622986,
        0.8824864625930786
      ],
      "min": [
        -0.000673389935400337,
        0.0005000184755772352
      ],
      "type": "VEC2"
    },
    {
      "bufferView": 0,
      "byteOffset": 124128,
      "componentType": 5125,
      "count": 1512,
      "type": "SCALAR"
    },
    {
      "bufferView": 2,
      "byteOffset": 242064,
      "componentType": 5126,
      "count": 2944,
      "max": [
        51.0907096862793,
        52.08466720581055,
        144.6162872314453
      ],
      "min": [
        -51.09072494506836,
        -50.900943756103516,
        -6.052167892456055
      ],
      "type": "VEC3"
    },
    {
      "bufferView": 2,
      "byteOffset": 277392,
      "componentType": 5126,
      "count": 2944,
      "max": [
        1.0,
        1.0,
        1.0
      ],
      "min": [
        -1.0,
        -1.0,
        -1.0
      ],
      "type": "VEC3"
    },
    {
      "bufferView": 1,
      "byteOffset": 80688,
      "componentType": 5126,
      "count": 2944,
      "max": [
        1.0,
        1.0167226791381836
      ],
      "min": [
        -0.09903264045715332,
        0.0
      ],
      "type": "VEC2"
    },
    {
      "bufferView": 0,
      "byteOffset": 130176,
      "componentType": 5125,
      "count": 8832,
      "type": "SCALAR"
    }
  ],
  "asset": {
    "extras": {
      "author": "Anthony Yanez (https://sketchfab.com/paulyanez)",
      "license": "CC-BY-4.0 (http://creativecommons.org/licenses/by/4.0/)",
      "source": "https://sketchfab.com/3d-models/soda-cans-4e0be610db9646929d8be84491f1a72f",
      "title": "Soda Cans"
    },
    "generator": "Sketchfab-12.66.0",
    "version": "2.0"
  },
  "bufferViews": [
    {
      "buffer": 0,
      "byteLength": 165504,
      "name": "floatBufferViews",
      "target": 34963
    },
    {
      "buffer": 0,
      "byteLength": 104240,
      "byteOffset": 165504,
      "byteStride": 8,
      "name": "floatBufferViews",
      "target": 34962
    },
    {
      "buffer": 0,
      "byteLength": 312720,
      "byteOffset": 269744,
      "byteStride": 12,
      "name": "floatBufferViews",
      "target": 34962
    },
    {
      "buffer": 0,
      "byteLength": 20064,
      "byteOffset": 582464,
      "byteStride": 16,
      "name": "floatBufferViews",
      "target": 34962
    }
  ],
  "buffers": [
    {
      "byteLength": 602528,
      "uri": "scene.bin"
    }
  ],
  "images": [
    {
      "uri": "textures/01_-_Default_baseColor.jpeg"
    },
    {
      "uri": "textures/01_-_Default_normal.png"
    },
    {
      "uri": "textures/03_-_Default_baseColor.jpeg"
    },
    {
      "uri": "textures/03_-_Default_normal.png"
    },
    {
      "uri": "textures/07_-_Default_baseColor.jpeg"
    },
    {
      "uri": "textures/07_-_Default_normal.png"
    },
    {
      "uri": "textures/08_-_Default_baseColor.jpeg"
    },
    {
      "uri": "textures/08_-_Default_normal.png"
    }
  ],
  "materials": [
    {
      "doubleSided": true,
      "name": "01_-_Default",
      "normalTexture": {
        "index": 1
      },
      "pbrMetallicRoughness": {
        "baseColorTexture": {
          "index": 0
        },
        "roughnessFactor": 0.4
      }
    },
    {
      "doubleSided": true,
      "name": "02_-_Default",
      "pbrMetallicRoughness": {
        "baseColorFactor": [
          0.1870884759,
          0.1870884759,
          0.1870884759,
          1.0
        ],
        "roughnessFactor": 0.736089939
      }
    },
    {
      "doubleSided": true,
      "name": "03_-_Default",
      "normalTexture": {
        "index": 3
      },
      "pbrMetallicRoughness": {
        "baseColorTexture": {
          "index": 2
        },
        "roughnessFactor": 0.4
      }
    },
    {
      "doubleSided": true,
      "name": "07_-_Default",
      "normalTexture": {
        "index": 5
      },
      "pbrMetallicRoughness": {
        "baseColorTexture": {
          "index": 4
        },
        "roughnessFactor": 0.4
      }
    },
    {
      "doubleSided": true,
      "name": "08_-_Default",
      "normalTexture": {
        "index": 7
      },
      "pbrMetallicRoughness": {
        "baseColorTexture": {
          "index": 6
        },
        "roughnessFactor": 0.4
      }
    }
  ],
  "meshes": [
    {
      "name": "Can_01 - Default_0",
      "primitives": [
        {
          "attributes": {
            "NORMAL": 1,
            "POSITION": 0,
            "TANGENT": 2,
            "TEXCOORD_0": 3
          },
          "indices": 4,
          "material": 0,
          "mode": 4
        }
      ]
    },
    {
      "name": "Can_02 - Default_0",
      "primitives": [
        {
          "attributes": {
            "NORMAL": 6,
            "POSITION": 5,
            "TEXCOORD_0": 7
          },
          "indices": 8,
          "material": 1,
          "mode": 4
        }
      ]
    },
    {
      "name": "Can001_03 - Default_0",
      "primitives": [
        {
          "attributes": {
            "NORMAL": 10,
            "POSITION": 9,
            "TANGENT": 11,
            "TEXCOORD_0": 12
          },
          "indices": 13,
          "material": 2,
          "mode": 4
        }
      ]
    },
    {
      "name": "Can001_02 - Default_0",
      "primitives": [
        {
          "attributes": {
            "NORMAL": 15,
            "POSITION": 14,
            "TEXCOORD_0": 16
          },
          "indices": 17,
          "material": 1,
          "mode": 4
        }
      ]
    },
    {
      "name": "Can002_07 - Default_0",
      "primitives": [
        {
          "attributes": {
            "NORMAL": 19,
            "POSITION": 18,
            "TANGENT": 20,
            "TEXCOORD_0": 21
          },
          "indices": 22,
          "material": 3,
          "mode": 4
        }
      ]
    },
    {
      "name": "Can002_02 - Default_0",
      "primitives": [
        {
          "attributes": {
            "NORMAL": 24,
            "POSITION": 23,
            "TEXCOORD_0": 25
          },
          "indices": 26,
          "material": 1,
          "mode": 4
        }
      ]
    },
    {
      "name": "Can003_08 - Default_0",
      "primitives": [
        {
          "attributes": {
            "NORMAL": 28,
            "POSITION": 27,
            "TANGENT": 29,
            "TEXCOORD_0": 30
          },
          "indices": 31,
          "material": 4,
          "mode": 4
        }
      ]
    },
    {
      "name": "Can003_02 - Default_0",
      "primitives": [
        {
          "attributes": {
            "NORMAL": 33,
            "POSITION": 32,
            "TEXCOORD_0": 34
          },
          "indices": 35,
          "material": 1,
          "mode": 4
        }
      ]
    }
  ],
  "nodes": [
    {
      "children": [
        1
      ],
      "matrix": [
        1.0,
        0.0,
        0.0,
        0.0,
        0.0,
        2.220446049250313e-16,
        -1.0,
        0.0,
        0.0,
        1.0,
        2.220446049250313e-16,
        0.0,
        0.0,
        0.0,
        0.0,
        1.0
      ],
      "name": "Sketchfab_model"
    },
    {
      "children": [
        2
      ],
      "matrix": [
        1.0,
        0.0,
        0.0,
        0.0,
        0.0,
        0.0,
        1.0,
        0.0,
        0.0,
        -1.0,
        0.0,
        0.0,
        0.0,
        0.0,
        0.0,
        1.0
      ],
      "name": "Soda Cans.FBX"
    },
    {
      "children": [
        3,
        6,
        9,
        12
      ],
      "name": "RootNode"
    },
    {
      "children": [
        4,
        5
      ],
      "matrix": [
        0.8187165260314941,
        0.0,
        0.0,
        0.0,
        0.0,
        1.8179158756825723e-16,
        -0.8187165260314941,
        0.0,
        0.0,
        1.0,
        2.220446049250313e-16,
        0.0,
        -138.34487915039063,
        0.0,
        0.2422643005847931,
        1.0
      ],
      "name": "Can"
    },
    {
      "mesh": 0,
      "name": "Can_01 - Default_0"
    },
    {
      "mesh": 1,
      "name": "Can_02 - Default_0"
    },
    {
      "children": [
        7,
        8
      ],
      "matrix": [
        0.8187165260314941,
        0.0,
        0.0,
        0.0,
        0.0,
        1.8179158756825723e-16,
        -0.8187165260314941,
        0.0,
        0.0,
        1.0,
        2.220446049250313e-16,
        0.0,
        -46.53728485107422,
        0.0,
        0.2422643005847931,
        1.0
      ],
      "name": "Can001"
    },
    {
      "mesh": 2,
      "name": "Can001_03 - Default_0"
    },
    {
      "mesh": 3,
      "name": "Can001_02 - Default_0"
    },
    {
      "children": [
        10,
        11
      ],
      "matrix": [
        0.6271732675695665,
        0.0,
        -0.5262608121864968,
        0.0,
        -0.5262608121864968,
        0.0,
        -0.6271732675695666,
        0.0,
        0.0,
        1.0,
        0.0,
        0.0,
        45.13334655761719,
        0.0,
        0.2422643005847931,
        1.0
      ],
      "name": "Can002"
    },
    {
      "mesh": 4,
      "name": "Can002_07 - Default_0"
    },
    {
      "mesh": 5,
      "name": "Can002_02 - Default_0"
    },
    {
      "children": [
        13,
        14
      ],
      "matrix": [
        0.5789200372286822,
        4.5447896892064307e-17,
        -0.5789199776240403,
        0.0,
        -0.5789199776240403,
        1.8179158756825723e-16,
        -0.5789200372286821,
        0.0,
        5.551115123125783e-17,
        0.9999999999999999,
        2.220446049250313e-16,
        0.0,
        140.9832763671875,
        0.0,
        0.2422643005847931,
        1.0
      ],
      "name": "Can003"
    },
    {
      "mesh": 6,
      "name": "Can003_08 - Default_0"
    },
    {
      "mesh": 7,
      "name": "Can003_02 - Default_0"
    }
  ],
  "samplers": [
    {
      "magFilter": 9729,
      "minFilter": 9987,
      "wrapS": 10497,
      "wrapT": 10497
    }
  ],
  "scene": 0,
  "scenes": [
    {
      "name": "Sketchfab_Scene",
      "nodes": [
        0
      ]
    }
  ],
  "textures": [
    {
      "sampler": 0,
      "source": 0
    },
    {
      "sampler": 0,
      "source": 1
    },
    {
      "sampler": 0,
      "source": 2
    },
    {
      "sampler": 0,
      "source": 3
    },
    {
      "sampler": 0,
      "source": 4
    },
    {
      "sampler": 0,
      "source": 5
    },
    {
      "sampler": 0,
      "source": 6
    },
    {
      "sampler": 0,
      "source": 7
    }
  ]
}
