{
  "accessors": [
    {
      "bufferView": 2,
      "componentType": 5126,
      "count": 23248,
      "max": [
        0.7777870297431946,
        4.113901138305664,
        0.05200052261352539
      ],
      "min": [
        -3.881317377090454,
        0.0,
        -9.247803688049316
      ],
      "type": "VEC3"
    },
    {
      "bufferView": 2,
      "byteOffset": 278976,
      "componentType": 5126,
      "count": 23248,
      "max": [
        0.9999998807907104,
        0.9999967217445374,
        1.0
      ],
      "min": [
        -0.9999971985816956,
        -0.9999983906745911,
        -1.0
      ],
      "type": "VEC3"
    },
    {
      "bufferView": 3,
      "componentType": 5126,
      "count": 23248,
      "max": [
        1.0,
        0.9999797940254211,
        1.0,
        1.0
      ],
      "min": [
        -1.0,
        -0.9999796152114868,
        -1.0,
        -1.0
      ],
      "type": "VEC4"
    },
    {
      "bufferView": 1,
      "componentType": 5126,
      "count": 23248,
      "max": [
        0.9743249416351318,
        0.9990390539169312
      ],
      "min": [
        0.0009555121068842709,
        0.00095430325018242
      ],
      "type": "VEC2"
    },
    {
      "bufferView": 1,
      "byteOffset": 185984,
      "componentType": 5126,
      "count": 23248,
      "max": [
        0.9743249416351318,
        0.9990390539169312
      ],
      "min": [
        0.0009555121068842709,
        0.00095430325018242
      ],
      "type": "VEC2"
    },
    {
      "bufferView": 1,
      "byteOffset": 371968,
      "componentType": 5126,
      "count": 23248,
      "max": [
        0.9743249416351318,
        0.9990390539169312
      ],
      "min": [
        0.0009555121068842709,
        0.00095430325018242
      ],
      "type": "VEC2"
    },
    {
      "bufferView": 1,
      "byteOffset": 557952,
      "componentType": 5126,
      "count": 23248,
      "max": [
        0.9743249416351318,
        0.9990390539169312
      ],
      "min": [
        0.0009555121068842709,
        0.00095430325018242
      ],
      "type": "VEC2"
    },
    {
      "bufferView": 0,
      "componentType": 5125,
      "count": 117468,
      "type": "SCALAR"
    }
  ],
  "asset": {
    "extras": {
      "author": "Nicholas-3D (https://sketchfab.com/Nicholas01)",
      "license": "CC-BY-4.0 (http://creativecommons.org/licenses/by/4.0/)",
      "source": "https://sketchfab.com/3d-models/bench-model-free-5d5f3851a1e5448cb8728ebc5df5ee93",
      "title": "Bench Model Free"
    },
    "generator": "Sketchfab-15.83.0",
    "version": "2.0"
  },
  "bufferViews": [
    {
      "buffer": 0,
      "byteLength": 469872,
      "name": "floatBufferViews",
      "target": 34963
    },
    {
      "buffer": 0,
      "byteLength": 743936,
      "byteOffset": 469872,
      "byteStride": 8,
      "name": "floatBufferViews",
      "target": 34962
    },
    {
      "buffer": 0,
      "byteLength": 557952,
      "byteOffset": 1213808,
      "byteStride": 12,
      "name": "floatBufferViews",
      "target": 34962
    },
    {
      "buffer": 0,
      "byteLength": 371968,
      "byteOffset": 1771760,
      "byteStride": 16,
      "name": "floatBufferViews",
      "target": 34962
    }
  ],
  "buffers": [
    {
      "byteLength": 2143728,
      "uri": "scene.bin"
    }
  ],
  "images": [
    {
      "uri": "textures/Bench_baseColor.png"
    },
    {
      "uri": "textures/Bench_metallicRoughness.png"
    },
    {
      "uri": "textures/Bench_normal.png"
    }
  ],
  "materials": [
    {
      "doubleSided": true,
      "name": "Bench",
      "normalTexture": {
        "index": 2
      },
      "pbrMetallicRoughness": {
        "baseColorTexture": {
          "index": 0
        },
        "metallicRoughnessTexture": {
          "index": 1
        }
      }
    }
  ],
  "meshes": [
    {
      "name": "Object_0",
      "primitives": [
        {
          "attributes": {
            "NORMAL": 1,
            "POSITION": 0,
            "TANGENT": 2,
            "TEXCOORD_0": 3,
            "TEXCOORD_1": 4,
            "TEXCOORD_2": 5,
            "TEXCOORD_3": 6
          },
          "indices": 7,
          "material": 0,
          "mode": 4
        }
      ]
    }
  ],
  "nodes": [
    {
      "children": [
        1
      ],
      "matrix": [
        1.0,
        0.0,
        0.0,
        0.0,
        0.0,
        2.220446049250313e-16,
        -1.0,
        0.0,
        0.0,
        1.0,
        2.220446049250313e-16,
        0.0,
        0.0,
        0.0,
        0.0,
        1.0
      ],
      "name": "Sketchfab_model"
    },
    {
      "children": [
        2
      ],
      "name": "root"
    },
    {
      "children": [
        3
      ],
      "matrix": [
        1.0,
        0.0,
        0.0,
        0.0,
        0.0,
        2.220446049250313e-16,
        1.0,
        0.0,
        0.0,
        -1.0,
        2.220446049250313e-16,
        0.0,
        0.0,
        0.0,
        0.0,
        1.0
      ],
      "name": "GLTF_SceneRootNode"
    },
    {
      "children": [
        4
      ],
      "matrix": [
        0.3240000009536743,
        0.0,
        0.0,
        0.0,
        0.0,
        0.3240000009536743,
        0.0,
        0.0,
        0.0,
        0.0,
        0.3240000009536743,
        0.0,
        0.0,
        0.0,
        0.0,
        1.0
      ],
      "name": "Bench_0"
    },
    {
      "mesh": 0,
      "name": "Object_4"
    }
  ],
  "samplers": [
    {
      "magFilter": 9729,
      "minFilter": 9987,
      "wrapS": 10497,
      "wrapT": 10497
    }
  ],
  "scene": 0,
  "scenes": [
    {
      "name": "Sketchfab_Scene",
      "nodes": [
        0
      ]
    }
  ],
  "textures": [
    {
      "sampler": 0,
      "source": 0
    },
    {
      "sampler": 0,
      "source": 1
    },
    {
      "sampler": 0,
      "source": 2
    }
  ]
}
